Coordinates
version=1
nRows=14
nColumns=24
inDegrees=yes

Units are S.I. units (second, meters, Newtons, ...)
Angles are in degrees.

endheader
time	pelvis_tilt	pelvis_list	pelvis_rotation	pelvis_tx	pelvis_ty	pelvis_tz	hip_flexion_r	hip_adduction_r	hip_rotation_r	knee_angle_r	ankle_angle_r	subtalar_angle_r	mtp_angle_r	hip_flexion_l	hip_adduction_l	hip_rotation_l	knee_angle_l	ankle_angle_l	subtalar_angle_l	mtp_angle_l	lumbar_extension	lumbar_bending	lumbar_rotation
      6.10500000	     -9.22218934	      5.88231633	      3.58355199	     -1.47702069	     -0.00806279	     -0.30265370	     25.53548579	    -11.92809912	     -9.41433144	    -65.25921537	    -15.64935879	      3.01416169	     38.30541291	     12.86607616	     11.10231311	     17.39940814	    -15.17257217	      2.47758816	    -10.33175012	     -1.26422260	      7.74507505	     -7.90673132	      2.20709452
      6.11000000	     -9.10557210	      5.67132823	      3.70499003	     -1.47199254	     -0.00758371	     -0.30300674	     26.08605381	    -11.75038220	     -9.59126035	    -64.94629924	    -14.97071645	      3.09896687	     38.59139208	     12.25980205	     10.87972371	     17.67203587	    -14.93490964	      2.70099946	    -10.37211854	     -1.37853923	      7.55845084	     -7.69546742	      1.83883555
      6.11500000	     -8.92566290	      5.51491249	      3.82373579	     -1.46700483	     -0.00707601	     -0.30337313	     26.55442543	    -11.62839960	     -9.75038247	    -64.57209271	    -14.29099362	      3.17688681	     38.88561503	     11.56951044	     10.70074016	     17.91360595	    -14.66021653	      2.90782204	    -10.38286284	     -1.57168263	      7.28736058	     -7.53675593	      1.44919907
      6.12000000	     -8.81302923	      5.32438778	      3.88632408	     -1.46201851	     -0.00666487	     -0.30362512	     27.10401607	    -11.42198174	     -9.83527801	    -64.13733160	    -13.69424443	      3.21012498	     39.06343904	     10.95462445	     10.45710160	     18.07146925	    -14.36472462	      3.13668874	    -10.32984530	     -1.60128031	      7.10678615	     -7.33546172	      1.13714341
      6.12500000	     -8.72685782	      5.14491577	      3.93947244	     -1.45705054	     -0.00635244	     -0.30387925	     27.67316502	    -11.22219872	     -9.90697878	    -63.64886890	    -13.10493316	      3.20356334	     39.19336461	     10.36819733	     10.21791710	     18.19521344	    -14.05711186	      3.37174723	    -10.26239421	     -1.53474535	      6.96071063	     -7.13757188	      0.90326227
      6.13000000	     -8.52324361	      4.99281939	      4.02782313	     -1.45211253	     -0.00594103	     -0.30412952	     28.07358455	    -11.06108071	    -10.00759874	    -63.08838575	    -12.46260057	      3.29374904	     39.28228008	      9.65298076	      9.99089294	     18.26768577	    -13.73499048	      3.58648806	    -10.07116838	     -1.35456268	      6.66549840	     -6.97656866	      0.54906471
      6.13500000	     -8.36020436	      4.83439058	      4.08589315	     -1.44717617	     -0.00561909	     -0.30432212	     28.51316309	    -10.86527636	    -10.05962162	    -62.47068363	    -11.86775685	      3.34619721	     39.28332089	      8.97962399	      9.74449103	     18.30717939	    -13.39422304	      3.78268565	     -9.89467522	     -1.07187387	      6.42476216	     -6.80337785	      0.26665285
      6.14000000	     -8.28627020	      4.67617695	      4.12457543	     -1.44223257	     -0.00544627	     -0.30449056	     29.04601755	    -10.65546703	    -10.06795001	    -61.80068143	    -11.34936935	      3.36508608	     39.29320118	      8.39811532	      9.50048667	     18.36824301	    -13.04607787	      3.98450902	     -9.77920567	     -0.85398849	      6.29252582	     -6.63310031	      0.04550733
      6.14500000	     -8.02291092	      4.56313300	      4.19513507	     -1.43731062	     -0.00510833	     -0.30463266	     29.32341419	    -10.49944736	    -10.11862646	    -61.06389802	    -10.70761776	      3.45363444	     39.07957779	      7.61539363	      9.27615825	     18.31841386	    -12.67908608	      4.09301173	     -9.49380943	     -0.20711487	      5.93334654	     -6.50373411	     -0.23574007
      6.15000000	     -7.88447161	      4.41604108	      4.27669016	     -1.43242156	     -0.00494073	     -0.30480146	     29.72441543	    -10.30510023	    -10.13053265	    -60.26707058	    -10.14489342	      3.58948066	     38.94220346	      6.98495433	      9.03783546	     18.33314259	    -12.34779316	      4.20746299	     -9.33662323	      0.27215040	      5.71214800	     -6.34561930	     -0.56712559
      6.15500000	     -7.74469741	      4.28954699	      4.34090077	     -1.42751178	     -0.00481717	     -0.30491435	     30.10491723	    -10.11813290	    -10.11670387	    -59.40958785	     -9.61730913	      3.68482946	     38.76242341	      6.34749659	      8.81635289	     18.34679420	    -12.00924273	      4.31137790	     -9.21109269	      0.70547704	      5.49705507	     -6.20820887	     -0.83249218
      6.16000000	     -7.59748944	      4.17490405	      4.42721668	     -1.42262330	     -0.00475001	     -0.30502420	     30.45049693	     -9.95235507	    -10.10837320	    -58.49991731	     -9.07633482	      3.80896515	     38.54294736	      5.71462800	      8.61347443	     18.39521445	    -11.70115373	      4.42136505	     -9.11388258	      1.12245084	      5.26398463	     -6.09027397	     -1.11372920
      6.16500000	     -7.44864434	      4.06370536	      4.51996123	     -1.41776402	     -0.00472953	     -0.30512245	     30.76960527	     -9.78918294	    -10.08957109	    -57.53220757	     -8.53578227	      3.95810692	     38.25890100	      5.08913082	      8.41930610	     18.48326077	    -11.41228724	      4.52961938	     -9.06994117	      1.50104302	      5.02288582	     -5.97343228	     -1.39548852
      6.17000000	     -7.44982742	      3.96383055	      4.57766858	     -1.41291648	     -0.00492981	     -0.30512961	     31.25468561	     -9.60741773	     -9.97457614	    -56.50898412	     -8.14366043	      4.01038341	     38.16947441	      4.64879375	      8.25607902	     18.58926260	    -11.18400577	      4.70681315	     -9.09203684	      1.61921185	      4.95626507	     -5.88686195	     -1.61060475
